<!DOCTYPE svg PUBLIC "-//W3C//DTD SVG 1.1//EN" "http://www.w3.org/Graphics/SVG/1.1/DTD/svg11.dtd">
<!-- Uploaded to: SVG Repo, www.svgrepo.com, Transformed by: SVG Repo Mixer Tools -->
<svg width="256px" height="256px" viewBox="0 0 48.00 48.00" xmlns="http://www.w3.org/2000/svg" fill="#000000" stroke="#000000" stroke-width="2.352">
<g id="SVGRepo_bgCarrier" stroke-width="0"/>
<g id="SVGRepo_tracerCarrier" stroke-linecap="round" stroke-linejoin="round" stroke="#CCCCCC" stroke-width="0.192"/>
<g id="SVGRepo_iconCarrier">
<defs>
<style>.a{fill:none;stroke:#000000;stroke-linecap:round;stroke-linejoin:round;}</style>
</defs>
<rect class="a" x="5.5" y="22.2793" width="5.6055" height="3.4414" rx="0.7814"/>
<path class="a" d="M18.2832,27.9114l-4.5165-7.8228H22.8Z"/>
<path class="a" d="M27.1564,19.9636,22.64,27.7864h9.033Z"/>
<path class="a" d="M7.5,5.5a2,2,0,0,0-2,2v9.2949H33.002a1.3931,1.3931,0,0,1,1.3964,1.3965V29.8086a1.3931,1.3931,0,0,1-1.3964,1.3965H5.5V40.5a2,2,0,0,0,2,2h33a2,2,0,0,0,2-2V7.5a2,2,0,0,0-2-2Z"/>
</g>
</svg>